<mxfile host="app.diagrams.net" modified="2023-05-05T17:40:22.023Z" agent="Mozilla/5.0 (X11; Linux x86_64; rv:109.0) Gecko/20100101 Firefox/111.0" etag="cO_lfQG_vXPt8VpeVdkl" version="21.2.9" type="device">
  <diagram name="Page-1" id="nn8ObbTLKGp7J4ONqTpA">
    <mxGraphModel dx="1434" dy="822" grid="1" gridSize="10" guides="1" tooltips="1" connect="1" arrows="1" fold="1" page="1" pageScale="1" pageWidth="850" pageHeight="1100" math="0" shadow="0">
      <root>
        <mxCell id="0" />
        <mxCell id="1" parent="0" />
        <mxCell id="r2eGG4FNdHpuhT4Cnj9E-90" style="edgeStyle=orthogonalEdgeStyle;rounded=0;orthogonalLoop=1;jettySize=auto;html=1;exitX=1;exitY=0.5;exitDx=0;exitDy=0;entryX=0;entryY=0.5;entryDx=0;entryDy=0;" edge="1" parent="1" source="r2eGG4FNdHpuhT4Cnj9E-51" target="r2eGG4FNdHpuhT4Cnj9E-56">
          <mxGeometry relative="1" as="geometry">
            <Array as="points">
              <mxPoint x="580" y="900" />
              <mxPoint x="580" y="940" />
            </Array>
          </mxGeometry>
        </mxCell>
        <mxCell id="r2eGG4FNdHpuhT4Cnj9E-64" style="edgeStyle=orthogonalEdgeStyle;rounded=0;orthogonalLoop=1;jettySize=auto;html=1;exitX=1;exitY=0.5;exitDx=0;exitDy=0;entryX=0;entryY=0.5;entryDx=0;entryDy=0;" edge="1" parent="1" source="r2eGG4FNdHpuhT4Cnj9E-51" target="r2eGG4FNdHpuhT4Cnj9E-57">
          <mxGeometry relative="1" as="geometry">
            <Array as="points">
              <mxPoint x="580" y="900" />
              <mxPoint x="580" y="820" />
            </Array>
          </mxGeometry>
        </mxCell>
        <mxCell id="r2eGG4FNdHpuhT4Cnj9E-1" value="&lt;div style=&quot;color: rgb(0, 0, 0); background-color: rgb(255, 255, 255); font-family: &amp;quot;Fira Code&amp;quot;, &amp;quot;Material Icons&amp;quot;, &amp;quot;FontAwesome&amp;quot;, &amp;quot;Font Awesome 5 Free&amp;quot;, &amp;quot;Font Awesome 5 Brands&amp;quot;, &amp;quot;Droid Sans Mono&amp;quot;, &amp;quot;monospace&amp;quot;, monospace, &amp;quot;Droid Sans Fallback&amp;quot;, &amp;quot;Droid Sans Mono&amp;quot;, &amp;quot;monospace&amp;quot;, monospace; font-weight: normal; font-size: 14px; line-height: 19px;&quot;&gt;&lt;div&gt;cmpq    (%r14), %r15&lt;/div&gt;&lt;/div&gt;" style="rounded=0;whiteSpace=wrap;html=1;" vertex="1" parent="1">
          <mxGeometry x="80" y="320" width="320" height="40" as="geometry" />
        </mxCell>
        <mxCell id="r2eGG4FNdHpuhT4Cnj9E-2" value="&lt;div style=&quot;color: rgb(0, 0, 0); background-color: rgb(255, 255, 255); font-family: &amp;quot;Fira Code&amp;quot;, &amp;quot;Material Icons&amp;quot;, &amp;quot;FontAwesome&amp;quot;, &amp;quot;Font Awesome 5 Free&amp;quot;, &amp;quot;Font Awesome 5 Brands&amp;quot;, &amp;quot;Droid Sans Mono&amp;quot;, &amp;quot;monospace&amp;quot;, monospace, &amp;quot;Droid Sans Fallback&amp;quot;, &amp;quot;Droid Sans Mono&amp;quot;, &amp;quot;monospace&amp;quot;, monospace; font-weight: normal; font-size: 14px; line-height: 19px;&quot;&gt;&lt;div&gt;&lt;span style=&quot;color: #000000;&quot;&gt;movq    8(%rbx), %rdi&lt;/span&gt;&lt;/div&gt;&lt;/div&gt;" style="rounded=0;whiteSpace=wrap;html=1;" vertex="1" parent="1">
          <mxGeometry x="80" y="400" width="320" height="40" as="geometry" />
        </mxCell>
        <mxCell id="r2eGG4FNdHpuhT4Cnj9E-3" value="&lt;div style=&quot;color: rgb(0, 0, 0); background-color: rgb(255, 255, 255); font-family: &amp;quot;Fira Code&amp;quot;, &amp;quot;Material Icons&amp;quot;, &amp;quot;FontAwesome&amp;quot;, &amp;quot;Font Awesome 5 Free&amp;quot;, &amp;quot;Font Awesome 5 Brands&amp;quot;, &amp;quot;Droid Sans Mono&amp;quot;, &amp;quot;monospace&amp;quot;, monospace, &amp;quot;Droid Sans Fallback&amp;quot;, &amp;quot;Droid Sans Mono&amp;quot;, &amp;quot;monospace&amp;quot;, monospace; font-weight: normal; font-size: 14px; line-height: 19px;&quot;&gt;&lt;div&gt;&lt;span style=&quot;color: #000000;&quot;&gt;movq    (%rbx), %rbx&lt;/span&gt;&lt;/div&gt;&lt;/div&gt;" style="rounded=0;whiteSpace=wrap;html=1;" vertex="1" parent="1">
          <mxGeometry x="80" y="440" width="320" height="40" as="geometry" />
        </mxCell>
        <mxCell id="r2eGG4FNdHpuhT4Cnj9E-5" value="&lt;p style=&quot;line-height: 70%;&quot;&gt;&lt;/p&gt;&lt;div style=&quot;color: rgb(0, 0, 0); background-color: rgb(255, 255, 255); font-family: &amp;quot;Fira Code&amp;quot;, &amp;quot;Material Icons&amp;quot;, &amp;quot;FontAwesome&amp;quot;, &amp;quot;Font Awesome 5 Free&amp;quot;, &amp;quot;Font Awesome 5 Brands&amp;quot;, &amp;quot;Droid Sans Mono&amp;quot;, &amp;quot;monospace&amp;quot;, monospace, &amp;quot;Droid Sans Fallback&amp;quot;, &amp;quot;Droid Sans Mono&amp;quot;, &amp;quot;monospace&amp;quot;, monospace; font-weight: normal; line-height: 76%; font-size: 13px;&quot;&gt;&lt;div style=&quot;line-height: 76%;&quot;&gt;&lt;font size=&quot;1&quot;&gt;&lt;span style=&quot;color: rgb(0, 0, 0); font-size: 7px;&quot;&gt;testb   $1, %bl&lt;/span&gt;&lt;/font&gt;&lt;/div&gt;&lt;/div&gt;&lt;p&gt;&lt;/p&gt;" style="rounded=0;whiteSpace=wrap;html=1;" vertex="1" parent="1">
          <mxGeometry x="80" y="360" width="80" height="40" as="geometry" />
        </mxCell>
        <mxCell id="r2eGG4FNdHpuhT4Cnj9E-14" style="edgeStyle=orthogonalEdgeStyle;rounded=0;orthogonalLoop=1;jettySize=auto;html=1;exitX=1;exitY=0.5;exitDx=0;exitDy=0;entryX=0;entryY=0.5;entryDx=0;entryDy=0;" edge="1" parent="1" source="r2eGG4FNdHpuhT4Cnj9E-6" target="r2eGG4FNdHpuhT4Cnj9E-10">
          <mxGeometry relative="1" as="geometry" />
        </mxCell>
        <mxCell id="r2eGG4FNdHpuhT4Cnj9E-17" style="edgeStyle=orthogonalEdgeStyle;rounded=0;orthogonalLoop=1;jettySize=auto;html=1;exitX=1;exitY=0.5;exitDx=0;exitDy=0;entryX=0;entryY=0.5;entryDx=0;entryDy=0;" edge="1" parent="1" source="r2eGG4FNdHpuhT4Cnj9E-6" target="r2eGG4FNdHpuhT4Cnj9E-8">
          <mxGeometry relative="1" as="geometry" />
        </mxCell>
        <mxCell id="r2eGG4FNdHpuhT4Cnj9E-6" value="&lt;p style=&quot;line-height: 100%;&quot;&gt;&lt;/p&gt;&lt;div style=&quot;color: rgb(0, 0, 0); background-color: rgb(255, 255, 255); font-family: &amp;quot;Fira Code&amp;quot;, &amp;quot;Material Icons&amp;quot;, &amp;quot;FontAwesome&amp;quot;, &amp;quot;Font Awesome 5 Free&amp;quot;, &amp;quot;Font Awesome 5 Brands&amp;quot;, &amp;quot;Droid Sans Mono&amp;quot;, &amp;quot;monospace&amp;quot;, monospace, &amp;quot;Droid Sans Fallback&amp;quot;, &amp;quot;Droid Sans Mono&amp;quot;, &amp;quot;monospace&amp;quot;, monospace; font-weight: normal; line-height: 87%; font-size: 14px;&quot;&gt;&lt;div style=&quot;line-height: 87%;&quot;&gt;&lt;font style=&quot;font-size: 11px;&quot;&gt;movq    %rdi, %rbx&lt;/font&gt;&lt;/div&gt;&lt;/div&gt;&lt;p&gt;&lt;/p&gt;" style="rounded=0;whiteSpace=wrap;html=1;" vertex="1" parent="1">
          <mxGeometry x="400" y="400" width="80" height="40" as="geometry" />
        </mxCell>
        <mxCell id="r2eGG4FNdHpuhT4Cnj9E-16" style="edgeStyle=orthogonalEdgeStyle;rounded=0;orthogonalLoop=1;jettySize=auto;html=1;exitX=1;exitY=0.5;exitDx=0;exitDy=0;entryX=0.5;entryY=1;entryDx=0;entryDy=0;" edge="1" parent="1" source="r2eGG4FNdHpuhT4Cnj9E-7" target="r2eGG4FNdHpuhT4Cnj9E-15">
          <mxGeometry relative="1" as="geometry">
            <Array as="points">
              <mxPoint x="440" y="460" />
              <mxPoint x="440" y="500" />
              <mxPoint x="880" y="500" />
            </Array>
          </mxGeometry>
        </mxCell>
        <mxCell id="r2eGG4FNdHpuhT4Cnj9E-7" value="&lt;p style=&quot;line-height: 90%;&quot;&gt;&lt;/p&gt;&lt;div style=&quot;color: rgb(0, 0, 0); background-color: rgb(255, 255, 255); font-family: &amp;quot;Fira Code&amp;quot;, &amp;quot;Material Icons&amp;quot;, &amp;quot;FontAwesome&amp;quot;, &amp;quot;Font Awesome 5 Free&amp;quot;, &amp;quot;Font Awesome 5 Brands&amp;quot;, &amp;quot;Droid Sans Mono&amp;quot;, &amp;quot;monospace&amp;quot;, monospace, &amp;quot;Droid Sans Fallback&amp;quot;, &amp;quot;Droid Sans Mono&amp;quot;, &amp;quot;monospace&amp;quot;, monospace; font-weight: normal; line-height: 45%; font-size: 11px;&quot;&gt;&lt;div style=&quot;line-height: 105%;&quot;&gt;&lt;font style=&quot;font-size: 8px;&quot;&gt;leaq    -1(%rbx,%rax), %rax&lt;/font&gt;&lt;/div&gt;&lt;/div&gt;&lt;p&gt;&lt;/p&gt;" style="rounded=0;whiteSpace=wrap;html=1;" vertex="1" parent="1">
          <mxGeometry x="400" y="440" width="80" height="40" as="geometry" />
        </mxCell>
        <mxCell id="r2eGG4FNdHpuhT4Cnj9E-8" value="&lt;div style=&quot;color: rgb(0, 0, 0); background-color: rgb(255, 255, 255); font-family: &amp;quot;Fira Code&amp;quot;, &amp;quot;Material Icons&amp;quot;, &amp;quot;FontAwesome&amp;quot;, &amp;quot;Font Awesome 5 Free&amp;quot;, &amp;quot;Font Awesome 5 Brands&amp;quot;, &amp;quot;Droid Sans Mono&amp;quot;, &amp;quot;monospace&amp;quot;, monospace, &amp;quot;Droid Sans Fallback&amp;quot;, &amp;quot;Droid Sans Mono&amp;quot;, &amp;quot;monospace&amp;quot;, monospace; font-weight: normal; font-size: 14px; line-height: 19px;&quot;&gt;&lt;div&gt;&lt;span style=&quot;color: #000000;&quot;&gt;movq    (%rbx), %rbx&lt;/span&gt;&lt;/div&gt;&lt;/div&gt;" style="rounded=0;whiteSpace=wrap;html=1;" vertex="1" parent="1">
          <mxGeometry x="520" y="440" width="320" height="40" as="geometry" />
        </mxCell>
        <mxCell id="r2eGG4FNdHpuhT4Cnj9E-9" value="&lt;div style=&quot;color: rgb(0, 0, 0); background-color: rgb(255, 255, 255); font-family: &amp;quot;Fira Code&amp;quot;, &amp;quot;Material Icons&amp;quot;, &amp;quot;FontAwesome&amp;quot;, &amp;quot;Font Awesome 5 Free&amp;quot;, &amp;quot;Font Awesome 5 Brands&amp;quot;, &amp;quot;Droid Sans Mono&amp;quot;, &amp;quot;monospace&amp;quot;, monospace, &amp;quot;Droid Sans Fallback&amp;quot;, &amp;quot;Droid Sans Mono&amp;quot;, &amp;quot;monospace&amp;quot;, monospace; font-weight: normal; font-size: 14px; line-height: 19px;&quot;&gt;&lt;div&gt;cmpq    (%r14), %r15&lt;/div&gt;&lt;/div&gt;" style="rounded=0;whiteSpace=wrap;html=1;" vertex="1" parent="1">
          <mxGeometry x="520" y="320" width="320" height="40" as="geometry" />
        </mxCell>
        <mxCell id="r2eGG4FNdHpuhT4Cnj9E-10" value="&lt;p style=&quot;line-height: 70%;&quot;&gt;&lt;/p&gt;&lt;div style=&quot;color: rgb(0, 0, 0); background-color: rgb(255, 255, 255); font-family: &amp;quot;Fira Code&amp;quot;, &amp;quot;Material Icons&amp;quot;, &amp;quot;FontAwesome&amp;quot;, &amp;quot;Font Awesome 5 Free&amp;quot;, &amp;quot;Font Awesome 5 Brands&amp;quot;, &amp;quot;Droid Sans Mono&amp;quot;, &amp;quot;monospace&amp;quot;, monospace, &amp;quot;Droid Sans Fallback&amp;quot;, &amp;quot;Droid Sans Mono&amp;quot;, &amp;quot;monospace&amp;quot;, monospace; font-weight: normal; line-height: 76%; font-size: 13px;&quot;&gt;&lt;div style=&quot;line-height: 76%;&quot;&gt;&lt;font size=&quot;1&quot;&gt;&lt;span style=&quot;color: rgb(0, 0, 0); font-size: 7px;&quot;&gt;testb   $1, %bl&lt;/span&gt;&lt;/font&gt;&lt;/div&gt;&lt;/div&gt;&lt;p&gt;&lt;/p&gt;" style="rounded=0;whiteSpace=wrap;html=1;" vertex="1" parent="1">
          <mxGeometry x="520" y="360" width="80" height="40" as="geometry" />
        </mxCell>
        <mxCell id="r2eGG4FNdHpuhT4Cnj9E-12" value="&lt;div style=&quot;color: rgb(0, 0, 0); background-color: rgb(255, 255, 255); font-family: &amp;quot;Fira Code&amp;quot;, &amp;quot;Material Icons&amp;quot;, &amp;quot;FontAwesome&amp;quot;, &amp;quot;Font Awesome 5 Free&amp;quot;, &amp;quot;Font Awesome 5 Brands&amp;quot;, &amp;quot;Droid Sans Mono&amp;quot;, &amp;quot;monospace&amp;quot;, monospace, &amp;quot;Droid Sans Fallback&amp;quot;, &amp;quot;Droid Sans Mono&amp;quot;, &amp;quot;monospace&amp;quot;, monospace; font-weight: normal; font-size: 14px; line-height: 19px;&quot;&gt;&lt;div&gt;&lt;span style=&quot;color: #000000;&quot;&gt;movq    8(%rbx), %rdi&lt;/span&gt;&lt;/div&gt;&lt;/div&gt;" style="rounded=0;whiteSpace=wrap;html=1;" vertex="1" parent="1">
          <mxGeometry x="520" y="400" width="320" height="40" as="geometry" />
        </mxCell>
        <mxCell id="r2eGG4FNdHpuhT4Cnj9E-13" value="&lt;p style=&quot;line-height: 100%;&quot;&gt;&lt;/p&gt;&lt;div style=&quot;color: rgb(0, 0, 0); background-color: rgb(255, 255, 255); font-family: &amp;quot;Fira Code&amp;quot;, &amp;quot;Material Icons&amp;quot;, &amp;quot;FontAwesome&amp;quot;, &amp;quot;Font Awesome 5 Free&amp;quot;, &amp;quot;Font Awesome 5 Brands&amp;quot;, &amp;quot;Droid Sans Mono&amp;quot;, &amp;quot;monospace&amp;quot;, monospace, &amp;quot;Droid Sans Fallback&amp;quot;, &amp;quot;Droid Sans Mono&amp;quot;, &amp;quot;monospace&amp;quot;, monospace; font-weight: normal; line-height: 87%; font-size: 14px;&quot;&gt;&lt;div style=&quot;line-height: 87%;&quot;&gt;&lt;font style=&quot;font-size: 11px;&quot;&gt;movq    %rdi, %rbx&lt;/font&gt;&lt;/div&gt;&lt;/div&gt;&lt;p&gt;&lt;/p&gt;" style="rounded=0;whiteSpace=wrap;html=1;" vertex="1" parent="1">
          <mxGeometry x="840" y="400" width="80" height="40" as="geometry" />
        </mxCell>
        <mxCell id="r2eGG4FNdHpuhT4Cnj9E-15" value="&lt;p style=&quot;line-height: 90%;&quot;&gt;&lt;/p&gt;&lt;div style=&quot;color: rgb(0, 0, 0); background-color: rgb(255, 255, 255); font-family: &amp;quot;Fira Code&amp;quot;, &amp;quot;Material Icons&amp;quot;, &amp;quot;FontAwesome&amp;quot;, &amp;quot;Font Awesome 5 Free&amp;quot;, &amp;quot;Font Awesome 5 Brands&amp;quot;, &amp;quot;Droid Sans Mono&amp;quot;, &amp;quot;monospace&amp;quot;, monospace, &amp;quot;Droid Sans Fallback&amp;quot;, &amp;quot;Droid Sans Mono&amp;quot;, &amp;quot;monospace&amp;quot;, monospace; font-weight: normal; line-height: 45%; font-size: 11px;&quot;&gt;&lt;div style=&quot;line-height: 105%;&quot;&gt;&lt;font style=&quot;font-size: 8px;&quot;&gt;leaq    -1(%rbx,%rax), %rax&lt;/font&gt;&lt;/div&gt;&lt;/div&gt;&lt;p&gt;&lt;/p&gt;" style="rounded=0;whiteSpace=wrap;html=1;" vertex="1" parent="1">
          <mxGeometry x="840" y="440" width="80" height="40" as="geometry" />
        </mxCell>
        <mxCell id="r2eGG4FNdHpuhT4Cnj9E-18" value="&lt;div&gt;Check GC&lt;/div&gt;" style="rounded=0;whiteSpace=wrap;html=1;" vertex="1" parent="1">
          <mxGeometry x="80" y="530" width="320" height="40" as="geometry" />
        </mxCell>
        <mxCell id="r2eGG4FNdHpuhT4Cnj9E-36" style="edgeStyle=orthogonalEdgeStyle;rounded=0;orthogonalLoop=1;jettySize=auto;html=1;exitX=1;exitY=0.5;exitDx=0;exitDy=0;entryX=0;entryY=0.5;entryDx=0;entryDy=0;fillColor=#f8cecc;strokeColor=#b85450;" edge="1" parent="1" source="r2eGG4FNdHpuhT4Cnj9E-19" target="r2eGG4FNdHpuhT4Cnj9E-30">
          <mxGeometry relative="1" as="geometry" />
        </mxCell>
        <mxCell id="r2eGG4FNdHpuhT4Cnj9E-19" value="&lt;div&gt;Load tail pointer (&amp;gt; 4 cycles)&lt;/div&gt;" style="rounded=0;whiteSpace=wrap;html=1;fillColor=#f8cecc;strokeColor=#b85450;" vertex="1" parent="1">
          <mxGeometry x="80" y="610" width="400" height="40" as="geometry" />
        </mxCell>
        <mxCell id="r2eGG4FNdHpuhT4Cnj9E-20" value="Load head element" style="rounded=0;whiteSpace=wrap;html=1;" vertex="1" parent="1">
          <mxGeometry x="80" y="650" width="320" height="40" as="geometry" />
        </mxCell>
        <mxCell id="r2eGG4FNdHpuhT4Cnj9E-21" value="Check end of list " style="rounded=0;whiteSpace=wrap;html=1;" vertex="1" parent="1">
          <mxGeometry x="80" y="570" width="80" height="40" as="geometry" />
        </mxCell>
        <mxCell id="r2eGG4FNdHpuhT4Cnj9E-22" style="edgeStyle=orthogonalEdgeStyle;rounded=0;orthogonalLoop=1;jettySize=auto;html=1;exitX=1;exitY=0.5;exitDx=0;exitDy=0;entryX=0;entryY=0.5;entryDx=0;entryDy=0;" edge="1" parent="1" target="r2eGG4FNdHpuhT4Cnj9E-29">
          <mxGeometry relative="1" as="geometry">
            <mxPoint x="480" y="630" as="sourcePoint" />
            <Array as="points">
              <mxPoint x="480" y="631" />
              <mxPoint x="500" y="631" />
              <mxPoint x="500" y="590" />
            </Array>
          </mxGeometry>
        </mxCell>
        <mxCell id="r2eGG4FNdHpuhT4Cnj9E-23" style="edgeStyle=orthogonalEdgeStyle;rounded=0;orthogonalLoop=1;jettySize=auto;html=1;exitX=1;exitY=0.5;exitDx=0;exitDy=0;entryX=0;entryY=0.5;entryDx=0;entryDy=0;" edge="1" parent="1" target="r2eGG4FNdHpuhT4Cnj9E-27">
          <mxGeometry relative="1" as="geometry">
            <mxPoint x="480" y="630" as="sourcePoint" />
            <Array as="points">
              <mxPoint x="480" y="631" />
              <mxPoint x="500" y="631" />
              <mxPoint x="500" y="670" />
            </Array>
          </mxGeometry>
        </mxCell>
        <mxCell id="r2eGG4FNdHpuhT4Cnj9E-25" style="edgeStyle=orthogonalEdgeStyle;rounded=0;orthogonalLoop=1;jettySize=auto;html=1;exitX=1;exitY=0.5;exitDx=0;exitDy=0;entryX=0.5;entryY=1;entryDx=0;entryDy=0;" edge="1" parent="1" source="r2eGG4FNdHpuhT4Cnj9E-26" target="r2eGG4FNdHpuhT4Cnj9E-32">
          <mxGeometry relative="1" as="geometry">
            <Array as="points">
              <mxPoint x="440" y="670" />
              <mxPoint x="440" y="710" />
              <mxPoint x="880" y="710" />
            </Array>
          </mxGeometry>
        </mxCell>
        <mxCell id="r2eGG4FNdHpuhT4Cnj9E-26" value="Add to accumulator" style="rounded=0;whiteSpace=wrap;html=1;" vertex="1" parent="1">
          <mxGeometry x="400" y="650" width="80" height="40" as="geometry" />
        </mxCell>
        <mxCell id="r2eGG4FNdHpuhT4Cnj9E-27" value="Load head element" style="rounded=0;whiteSpace=wrap;html=1;fillColor=#f5f5f5;fontColor=#333333;strokeColor=#666666;" vertex="1" parent="1">
          <mxGeometry x="520" y="650" width="320" height="40" as="geometry" />
        </mxCell>
        <mxCell id="r2eGG4FNdHpuhT4Cnj9E-28" value="Check GC" style="rounded=0;whiteSpace=wrap;html=1;fillColor=#f5f5f5;fontColor=#333333;strokeColor=#666666;" vertex="1" parent="1">
          <mxGeometry x="520" y="530" width="320" height="40" as="geometry" />
        </mxCell>
        <mxCell id="r2eGG4FNdHpuhT4Cnj9E-29" value="Check end of list" style="rounded=0;whiteSpace=wrap;html=1;fillColor=#f5f5f5;fontColor=#333333;strokeColor=#666666;" vertex="1" parent="1">
          <mxGeometry x="520" y="570" width="80" height="40" as="geometry" />
        </mxCell>
        <mxCell id="r2eGG4FNdHpuhT4Cnj9E-30" value="Load tail pointer" style="rounded=0;whiteSpace=wrap;html=1;fillColor=#f8cecc;strokeColor=#b85450;" vertex="1" parent="1">
          <mxGeometry x="520" y="610" width="400" height="40" as="geometry" />
        </mxCell>
        <mxCell id="r2eGG4FNdHpuhT4Cnj9E-32" value="Add to accumulator" style="rounded=0;whiteSpace=wrap;html=1;fillColor=#f5f5f5;fontColor=#333333;strokeColor=#666666;" vertex="1" parent="1">
          <mxGeometry x="840" y="650" width="80" height="40" as="geometry" />
        </mxCell>
        <mxCell id="r2eGG4FNdHpuhT4Cnj9E-37" value="&lt;div&gt;Check GC&lt;/div&gt;" style="rounded=0;whiteSpace=wrap;html=1;" vertex="1" parent="1">
          <mxGeometry x="80" y="760" width="320" height="40" as="geometry" />
        </mxCell>
        <mxCell id="r2eGG4FNdHpuhT4Cnj9E-39" value="Load tail pointer (&amp;gt; 4 cycles)" style="rounded=0;whiteSpace=wrap;html=1;" vertex="1" parent="1">
          <mxGeometry x="80" y="840" width="400" height="40" as="geometry" />
        </mxCell>
        <mxCell id="r2eGG4FNdHpuhT4Cnj9E-40" value="Load head element" style="rounded=0;whiteSpace=wrap;html=1;" vertex="1" parent="1">
          <mxGeometry x="80" y="920" width="320" height="40" as="geometry" />
        </mxCell>
        <mxCell id="r2eGG4FNdHpuhT4Cnj9E-41" value="Check end of list " style="rounded=0;whiteSpace=wrap;html=1;" vertex="1" parent="1">
          <mxGeometry x="80" y="800" width="80" height="40" as="geometry" />
        </mxCell>
        <mxCell id="r2eGG4FNdHpuhT4Cnj9E-45" value="Add to accumulator" style="rounded=0;whiteSpace=wrap;html=1;" vertex="1" parent="1">
          <mxGeometry x="400" y="920" width="80" height="40" as="geometry" />
        </mxCell>
        <mxCell id="r2eGG4FNdHpuhT4Cnj9E-61" style="edgeStyle=orthogonalEdgeStyle;rounded=0;orthogonalLoop=1;jettySize=auto;html=1;exitX=1;exitY=0.5;exitDx=0;exitDy=0;entryX=0;entryY=0.5;entryDx=0;entryDy=0;" edge="1" parent="1" source="r2eGG4FNdHpuhT4Cnj9E-51" target="r2eGG4FNdHpuhT4Cnj9E-55">
          <mxGeometry relative="1" as="geometry">
            <Array as="points">
              <mxPoint x="580" y="900" />
              <mxPoint x="580" y="860" />
            </Array>
          </mxGeometry>
        </mxCell>
        <mxCell id="r2eGG4FNdHpuhT4Cnj9E-62" style="edgeStyle=orthogonalEdgeStyle;rounded=0;orthogonalLoop=1;jettySize=auto;html=1;exitX=1;exitY=0.5;exitDx=0;exitDy=0;entryX=0;entryY=0.5;entryDx=0;entryDy=0;fillColor=#ffe6cc;strokeColor=#d79b00;" edge="1" parent="1" source="r2eGG4FNdHpuhT4Cnj9E-51" target="r2eGG4FNdHpuhT4Cnj9E-59">
          <mxGeometry relative="1" as="geometry" />
        </mxCell>
        <mxCell id="r2eGG4FNdHpuhT4Cnj9E-51" value="Estimate tail pointer (&amp;lt; 4 cycles)" style="rounded=0;whiteSpace=wrap;html=1;fillColor=#ffe6cc;strokeColor=#d79b00;" vertex="1" parent="1">
          <mxGeometry x="80" y="880" width="200" height="40" as="geometry" />
        </mxCell>
        <mxCell id="r2eGG4FNdHpuhT4Cnj9E-52" value="Check that tail is correct" style="rounded=0;whiteSpace=wrap;html=1;" vertex="1" parent="1">
          <mxGeometry x="480" y="840" width="80" height="40" as="geometry" />
        </mxCell>
        <mxCell id="r2eGG4FNdHpuhT4Cnj9E-54" value="&lt;div&gt;Check GC&lt;/div&gt;" style="rounded=0;whiteSpace=wrap;html=1;fillColor=#f5f5f5;fontColor=#333333;strokeColor=#666666;" vertex="1" parent="1">
          <mxGeometry x="600" y="760" width="320" height="40" as="geometry" />
        </mxCell>
        <mxCell id="r2eGG4FNdHpuhT4Cnj9E-55" value="Load tail pointer (&amp;gt; 4 cycles)" style="rounded=0;whiteSpace=wrap;html=1;fillColor=#f5f5f5;fontColor=#333333;strokeColor=#666666;" vertex="1" parent="1">
          <mxGeometry x="600" y="840" width="400" height="40" as="geometry" />
        </mxCell>
        <mxCell id="r2eGG4FNdHpuhT4Cnj9E-56" value="Load head element" style="rounded=0;whiteSpace=wrap;html=1;fillColor=#f5f5f5;fontColor=#333333;strokeColor=#666666;" vertex="1" parent="1">
          <mxGeometry x="600" y="920" width="320" height="40" as="geometry" />
        </mxCell>
        <mxCell id="r2eGG4FNdHpuhT4Cnj9E-57" value="Check end of list " style="rounded=0;whiteSpace=wrap;html=1;fillColor=#f5f5f5;fontColor=#333333;strokeColor=#666666;" vertex="1" parent="1">
          <mxGeometry x="600" y="800" width="80" height="40" as="geometry" />
        </mxCell>
        <mxCell id="r2eGG4FNdHpuhT4Cnj9E-58" value="Add to accumulator" style="rounded=0;whiteSpace=wrap;html=1;fillColor=#f5f5f5;fontColor=#333333;strokeColor=#666666;" vertex="1" parent="1">
          <mxGeometry x="920" y="920" width="80" height="40" as="geometry" />
        </mxCell>
        <mxCell id="r2eGG4FNdHpuhT4Cnj9E-59" value="Estimate tail pointer (&amp;lt; 4 cycles)" style="rounded=0;whiteSpace=wrap;html=1;fillColor=#ffe6cc;strokeColor=#d79b00;" vertex="1" parent="1">
          <mxGeometry x="600" y="880" width="200" height="40" as="geometry" />
        </mxCell>
        <mxCell id="r2eGG4FNdHpuhT4Cnj9E-60" value="Check that tail is correct" style="rounded=0;whiteSpace=wrap;html=1;fillColor=#f5f5f5;fontColor=#333333;strokeColor=#666666;" vertex="1" parent="1">
          <mxGeometry x="1000" y="840" width="80" height="40" as="geometry" />
        </mxCell>
        <mxCell id="r2eGG4FNdHpuhT4Cnj9E-65" value="&lt;div&gt;Check GC&lt;/div&gt;" style="rounded=0;whiteSpace=wrap;html=1;" vertex="1" parent="1">
          <mxGeometry x="120" y="1000" width="320" height="40" as="geometry" />
        </mxCell>
        <mxCell id="r2eGG4FNdHpuhT4Cnj9E-66" value="Load tail pointer (&amp;gt; 4 cycles)" style="rounded=0;whiteSpace=wrap;html=1;" vertex="1" parent="1">
          <mxGeometry x="120" y="1120" width="400" height="40" as="geometry" />
        </mxCell>
        <mxCell id="r2eGG4FNdHpuhT4Cnj9E-67" value="Load head element" style="rounded=0;whiteSpace=wrap;html=1;" vertex="1" parent="1">
          <mxGeometry x="120" y="1280" width="320" height="40" as="geometry" />
        </mxCell>
        <mxCell id="r2eGG4FNdHpuhT4Cnj9E-68" value="Check if end of list " style="rounded=0;whiteSpace=wrap;html=1;" vertex="1" parent="1">
          <mxGeometry x="120" y="1040" width="80" height="40" as="geometry" />
        </mxCell>
        <mxCell id="r2eGG4FNdHpuhT4Cnj9E-69" value="Add to accumulator" style="rounded=0;whiteSpace=wrap;html=1;" vertex="1" parent="1">
          <mxGeometry x="440" y="1280" width="80" height="40" as="geometry" />
        </mxCell>
        <mxCell id="r2eGG4FNdHpuhT4Cnj9E-72" value="Estimate tail pointer (&amp;lt; 4 cycles)" style="rounded=0;whiteSpace=wrap;html=1;fillColor=#ffe6cc;strokeColor=#d79b00;" vertex="1" parent="1">
          <mxGeometry x="120" y="1240" width="200" height="40" as="geometry" />
        </mxCell>
        <mxCell id="r2eGG4FNdHpuhT4Cnj9E-74" value="Check that tail is correct" style="rounded=0;whiteSpace=wrap;html=1;" vertex="1" parent="1">
          <mxGeometry x="520" y="1120" width="80" height="40" as="geometry" />
        </mxCell>
        <mxCell id="r2eGG4FNdHpuhT4Cnj9E-75" value="&lt;div&gt;Check GC&lt;/div&gt;" style="rounded=0;whiteSpace=wrap;html=1;fillColor=#f5f5f5;fontColor=#333333;strokeColor=#666666;" vertex="1" parent="1">
          <mxGeometry x="320" y="1040" width="320" height="40" as="geometry" />
        </mxCell>
        <mxCell id="r2eGG4FNdHpuhT4Cnj9E-76" value="Load tail pointer (&amp;gt; 4 cycles)" style="rounded=0;whiteSpace=wrap;html=1;fillColor=#f5f5f5;fontColor=#333333;strokeColor=#666666;" vertex="1" parent="1">
          <mxGeometry x="320" y="1160" width="400" height="40" as="geometry" />
        </mxCell>
        <mxCell id="r2eGG4FNdHpuhT4Cnj9E-77" value="Load head element" style="rounded=0;whiteSpace=wrap;html=1;fillColor=#f5f5f5;fontColor=#333333;strokeColor=#666666;" vertex="1" parent="1">
          <mxGeometry x="320" y="1320" width="320" height="40" as="geometry" />
        </mxCell>
        <mxCell id="r2eGG4FNdHpuhT4Cnj9E-78" value="Check if end of list " style="rounded=0;whiteSpace=wrap;html=1;fillColor=#f5f5f5;fontColor=#333333;strokeColor=#666666;" vertex="1" parent="1">
          <mxGeometry x="320" y="1080" width="80" height="40" as="geometry" />
        </mxCell>
        <mxCell id="r2eGG4FNdHpuhT4Cnj9E-79" value="Add to accumulator" style="rounded=0;whiteSpace=wrap;html=1;fillColor=#f5f5f5;fontColor=#333333;strokeColor=#666666;" vertex="1" parent="1">
          <mxGeometry x="640" y="1320" width="80" height="40" as="geometry" />
        </mxCell>
        <mxCell id="r2eGG4FNdHpuhT4Cnj9E-80" value="Estimate tail pointer (&amp;lt; 4 cycles)" style="rounded=0;whiteSpace=wrap;html=1;fillColor=#ffe6cc;strokeColor=#d79b00;" vertex="1" parent="1">
          <mxGeometry x="320" y="1240" width="200" height="40" as="geometry" />
        </mxCell>
        <mxCell id="r2eGG4FNdHpuhT4Cnj9E-81" value="Check that tail is correct" style="rounded=0;whiteSpace=wrap;html=1;fillColor=#f5f5f5;fontColor=#333333;strokeColor=#666666;" vertex="1" parent="1">
          <mxGeometry x="720" y="1160" width="80" height="40" as="geometry" />
        </mxCell>
        <mxCell id="r2eGG4FNdHpuhT4Cnj9E-82" value="Estimate tail pointer (&amp;lt; 4 cycles)" style="rounded=0;whiteSpace=wrap;html=1;fillColor=#ffe6cc;strokeColor=#d79b00;" vertex="1" parent="1">
          <mxGeometry x="520" y="1240" width="200" height="40" as="geometry" />
        </mxCell>
        <mxCell id="r2eGG4FNdHpuhT4Cnj9E-83" value="Load head element" style="rounded=0;whiteSpace=wrap;html=1;fillColor=#bac8d3;strokeColor=#23445d;" vertex="1" parent="1">
          <mxGeometry x="520" y="1280" width="320" height="40" as="geometry" />
        </mxCell>
        <mxCell id="r2eGG4FNdHpuhT4Cnj9E-84" value="Add to accumulator" style="rounded=0;whiteSpace=wrap;html=1;fillColor=#bac8d3;strokeColor=#23445d;" vertex="1" parent="1">
          <mxGeometry x="840" y="1280" width="80" height="40" as="geometry" />
        </mxCell>
        <mxCell id="r2eGG4FNdHpuhT4Cnj9E-85" value="&lt;div&gt;Check GC&lt;/div&gt;" style="rounded=0;whiteSpace=wrap;html=1;fillColor=#bac8d3;strokeColor=#23445d;" vertex="1" parent="1">
          <mxGeometry x="520" y="1000" width="320" height="40" as="geometry" />
        </mxCell>
        <mxCell id="r2eGG4FNdHpuhT4Cnj9E-86" value="Check end of list " style="rounded=0;whiteSpace=wrap;html=1;fillColor=#bac8d3;strokeColor=#23445d;" vertex="1" parent="1">
          <mxGeometry x="520" y="1080" width="80" height="40" as="geometry" />
        </mxCell>
        <mxCell id="r2eGG4FNdHpuhT4Cnj9E-87" value="Load tail pointer (&amp;gt; 4 cycles)" style="rounded=0;whiteSpace=wrap;html=1;fillColor=#bac8d3;strokeColor=#23445d;" vertex="1" parent="1">
          <mxGeometry x="520" y="1200" width="400" height="40" as="geometry" />
        </mxCell>
        <mxCell id="r2eGG4FNdHpuhT4Cnj9E-88" value="Check that tail is correct" style="rounded=0;whiteSpace=wrap;html=1;fillColor=#bac8d3;strokeColor=#23445d;" vertex="1" parent="1">
          <mxGeometry x="920" y="1200" width="80" height="40" as="geometry" />
        </mxCell>
      </root>
    </mxGraphModel>
  </diagram>
</mxfile>
